<svg xmlns="http://www.w3.org/2000/svg" xmlns:xlink="http://www.w3.org/1999/xlink" contentStyleType="text/css" height="819px" preserveAspectRatio="none" style="width:2131px;height:819px;background:#FFFFFF;" version="1.1" viewBox="0 0 2131 819" width="2131px" zoomAndPan="magnify"><title>HelixAgent - Security Scanning Pipeline</title><defs/><g><text fill="#000000" font-family="Helvetica" font-size="22" font-weight="bold" lengthAdjust="spacing" textLength="492.9697" x="817.6812" y="35.4209">HelixAgent - Security Scanning Pipeline</text><ellipse cx="1065.666" cy="61.6094" fill="#FFFFFF" rx="10" ry="10" style="stroke:#000000;stroke-width:1;"/><rect fill="#FFFFFF" height="33.9688" rx="12.5" ry="12.5" style="stroke:#555555;stroke-width:1;" width="175.8828" x="977.7246" y="91.6094"/><text fill="#000000" font-family="Helvetica" font-size="12" lengthAdjust="spacing" textLength="155.8828" x="987.7246" y="112.748">Code Commit / PR Trigger</text><rect fill="#E8F4FD" height="151.9648" style="stroke:#000000;stroke-width:1;" width="2119.332" x="6" y="135.5781"/><path d="M185.6201,135.5781 L185.6201,144.875 L175.6201,154.875 L6,154.875 " fill="none" style="stroke:#000000;stroke-width:1;"/><text fill="#000000" font-family="Helvetica" font-size="14" lengthAdjust="spacing" textLength="169.6201" x="9" y="149.5732">Static Analysis (parallel)</text><rect fill="#000000" height="6" rx="2.5" ry="2.5" style="stroke:#000000;stroke-width:1;" width="2099.332" x="16" y="171.875"/><path d="M180.8398,194.1445 L180.8398,217.8438 L160.8398,221.8438 L180.8398,225.8438 L180.8398,249.543 A0,0 0 0 0 180.8398,249.543 L351.5493,249.543 A0,0 0 0 0 351.5493,249.543 L351.5493,204.1445 L341.5493,194.1445 L180.8398,194.1445 A0,0 0 0 0 180.8398,194.1445 " fill="#FFFFFF" style="stroke:#000000;stroke-width:1;"/><path d="M341.5493,194.1445 L341.5493,204.1445 L351.5493,204.1445 L341.5493,194.1445 " fill="#FFFFFF" style="stroke:#000000;stroke-width:1;"/><text fill="#000000" font-family="Helvetica" font-size="13" lengthAdjust="spacing" textLength="143.7554" x="186.8398" y="211.2114">Detects SQL injection,</text><text fill="#000000" font-family="Helvetica" font-size="13" lengthAdjust="spacing" textLength="149.7095" x="186.8398" y="226.3442">hardcoded credentials,</text><text fill="#000000" font-family="Helvetica" font-size="13" lengthAdjust="spacing" textLength="132.7739" x="186.8398" y="241.4771">unsafe crypto usage</text><rect fill="#FFFFFF" height="47.9375" rx="12.5" ry="12.5" style="stroke:#555555;stroke-width:1;" width="132.8398" x="28" y="197.875"/><text fill="#000000" font-family="Helvetica" font-size="12" lengthAdjust="spacing" textLength="35.1914" x="38" y="219.0137">gosec</text><text fill="#000000" font-family="Helvetica" font-size="12" lengthAdjust="spacing" textLength="112.8398" x="38" y="232.9824">(Go security linter)</text><path d="M574.8696,194.1445 L574.8696,217.8438 L554.8696,221.8438 L574.8696,225.8438 L574.8696,249.543 A0,0 0 0 0 574.8696,249.543 L744.1128,249.543 A0,0 0 0 0 744.1128,249.543 L744.1128,204.1445 L734.1128,194.1445 L574.8696,194.1445 A0,0 0 0 0 574.8696,194.1445 " fill="#FFFFFF" style="stroke:#000000;stroke-width:1;"/><path d="M734.1128,194.1445 L734.1128,204.1445 L744.1128,204.1445 L734.1128,194.1445 " fill="#FFFFFF" style="stroke:#000000;stroke-width:1;"/><text fill="#000000" font-family="Helvetica" font-size="13" lengthAdjust="spacing" textLength="148.2432" x="580.8696" y="211.2114">Scans go.mod/go.sum,</text><text fill="#000000" font-family="Helvetica" font-size="13" lengthAdjust="spacing" textLength="132.7803" x="580.8696" y="226.3442">checks known CVEs,</text><text fill="#000000" font-family="Helvetica" font-size="13" lengthAdjust="spacing" textLength="124.103" x="580.8696" y="241.4771">license compliance</text><rect fill="#FFFFFF" height="47.9375" rx="12.5" ry="12.5" style="stroke:#555555;stroke-width:1;" width="193.3203" x="361.5493" y="197.875"/><text fill="#000000" font-family="Helvetica" font-size="12" lengthAdjust="spacing" textLength="29.2734" x="371.5493" y="219.0137">Snyk</text><text fill="#000000" font-family="Helvetica" font-size="12" lengthAdjust="spacing" textLength="173.3203" x="371.5493" y="232.9824">(Dependency vulnerabilities)</text><path d="M919.9019,194.1445 L919.9019,217.8438 L899.9019,221.8438 L919.9019,225.8438 L919.9019,249.543 A0,0 0 0 0 919.9019,249.543 L1081.5405,249.543 A0,0 0 0 0 1081.5405,249.543 L1081.5405,204.1445 L1071.5405,194.1445 L919.9019,194.1445 A0,0 0 0 0 919.9019,194.1445 " fill="#FFFFFF" style="stroke:#000000;stroke-width:1;"/><path d="M1071.5405,194.1445 L1071.5405,204.1445 L1081.5405,204.1445 L1071.5405,194.1445 " fill="#FFFFFF" style="stroke:#000000;stroke-width:1;"/><text fill="#000000" font-family="Helvetica" font-size="13" lengthAdjust="spacing" textLength="140.6387" x="925.9019" y="211.2114">Image vulnerabilities,</text><text fill="#000000" font-family="Helvetica" font-size="13" lengthAdjust="spacing" textLength="118.9487" x="925.9019" y="226.3442">OS package CVEs,</text><text fill="#000000" font-family="Helvetica" font-size="13" lengthAdjust="spacing" textLength="116.0542" x="925.9019" y="241.4771">misconfigurations</text><rect fill="#FFFFFF" height="47.9375" rx="12.5" ry="12.5" style="stroke:#555555;stroke-width:1;" width="145.7891" x="754.1128" y="197.875"/><text fill="#000000" font-family="Helvetica" font-size="12" lengthAdjust="spacing" textLength="29.8008" x="764.1128" y="219.0137">Trivy</text><text fill="#000000" font-family="Helvetica" font-size="12" lengthAdjust="spacing" textLength="125.7891" x="764.1128" y="232.9824">(Container scanning)</text><path d="M1295.7788,194.1445 L1295.7788,217.8438 L1275.7788,221.8438 L1295.7788,225.8438 L1295.7788,249.543 A0,0 0 0 0 1295.7788,249.543 L1428.9736,249.543 A0,0 0 0 0 1428.9736,249.543 L1428.9736,204.1445 L1418.9736,194.1445 L1295.7788,194.1445 A0,0 0 0 0 1295.7788,194.1445 " fill="#FFFFFF" style="stroke:#000000;stroke-width:1;"/><path d="M1418.9736,194.1445 L1418.9736,204.1445 L1428.9736,204.1445 L1418.9736,194.1445 " fill="#FFFFFF" style="stroke:#000000;stroke-width:1;"/><text fill="#000000" font-family="Helvetica" font-size="13" lengthAdjust="spacing" textLength="112.1948" x="1301.7788" y="211.2114">Custom Go rules,</text><text fill="#000000" font-family="Helvetica" font-size="13" lengthAdjust="spacing" textLength="111.103" x="1301.7788" y="226.3442">OWASP patterns,</text><text fill="#000000" font-family="Helvetica" font-size="13" lengthAdjust="spacing" textLength="86.7788" x="1301.7788" y="241.4771">taint analysis</text><rect fill="#FFFFFF" height="47.9375" rx="12.5" ry="12.5" style="stroke:#555555;stroke-width:1;" width="166.2383" x="1109.5405" y="197.875"/><text fill="#000000" font-family="Helvetica" font-size="12" lengthAdjust="spacing" textLength="54.2402" x="1119.5405" y="219.0137">Semgrep</text><text fill="#000000" font-family="Helvetica" font-size="12" lengthAdjust="spacing" textLength="146.2383" x="1119.5405" y="232.9824">(Pattern-based analysis)</text><path d="M1565.3936,194.1445 L1565.3936,217.8438 L1545.3936,221.8438 L1565.3936,225.8438 L1565.3936,249.543 A0,0 0 0 0 1565.3936,249.543 L1726.2832,249.543 A0,0 0 0 0 1726.2832,249.543 L1726.2832,204.1445 L1716.2832,194.1445 L1565.3936,194.1445 A0,0 0 0 0 1565.3936,194.1445 " fill="#FFFFFF" style="stroke:#000000;stroke-width:1;"/><path d="M1716.2832,194.1445 L1716.2832,204.1445 L1726.2832,204.1445 L1716.2832,194.1445 " fill="#FFFFFF" style="stroke:#000000;stroke-width:1;"/><text fill="#000000" font-family="Helvetica" font-size="13" lengthAdjust="spacing" textLength="118.8789" x="1571.3936" y="211.2114">Dockerfile checks,</text><text fill="#000000" font-family="Helvetica" font-size="13" lengthAdjust="spacing" textLength="139.8896" x="1571.3936" y="226.3442">docker-compose.yml,</text><text fill="#000000" font-family="Helvetica" font-size="13" lengthAdjust="spacing" textLength="91.3999" x="1571.3936" y="241.4771">K8s manifests</text><rect fill="#FFFFFF" height="47.9375" rx="12.5" ry="12.5" style="stroke:#555555;stroke-width:1;" width="106.4199" x="1438.9736" y="197.875"/><text fill="#000000" font-family="Helvetica" font-size="12" lengthAdjust="spacing" textLength="27.4043" x="1448.9736" y="219.0137">KICS</text><text fill="#000000" font-family="Helvetica" font-size="12" lengthAdjust="spacing" textLength="86.4199" x="1448.9736" y="232.9824">(IaC scanning)</text><path d="M1941.6172,194.1445 L1941.6172,217.8438 L1921.6172,221.8438 L1941.6172,225.8438 L1941.6172,249.543 A0,0 0 0 0 1941.6172,249.543 L2103.332,249.543 A0,0 0 0 0 2103.332,249.543 L2103.332,204.1445 L2093.332,194.1445 L1941.6172,194.1445 A0,0 0 0 0 1941.6172,194.1445 " fill="#FFFFFF" style="stroke:#000000;stroke-width:1;"/><path d="M2093.332,194.1445 L2093.332,204.1445 L2103.332,204.1445 L2093.332,194.1445 " fill="#FFFFFF" style="stroke:#000000;stroke-width:1;"/><text fill="#000000" font-family="Helvetica" font-size="13" lengthAdjust="spacing" textLength="102.6733" x="1947.6172" y="211.2114">Binary analysis,</text><text fill="#000000" font-family="Helvetica" font-size="13" lengthAdjust="spacing" textLength="116.1177" x="1947.6172" y="226.3442">OS package scan,</text><text fill="#000000" font-family="Helvetica" font-size="13" lengthAdjust="spacing" textLength="140.7148" x="1947.6172" y="241.4771">language-specific libs</text><rect fill="#FFFFFF" height="47.9375" rx="12.5" ry="12.5" style="stroke:#555555;stroke-width:1;" width="185.334" x="1736.2832" y="197.875"/><text fill="#000000" font-family="Helvetica" font-size="12" lengthAdjust="spacing" textLength="36.334" x="1746.2832" y="219.0137">Grype</text><text fill="#000000" font-family="Helvetica" font-size="12" lengthAdjust="spacing" textLength="165.334" x="1746.2832" y="232.9824">(SBOM vulnerability match)</text><rect fill="#000000" height="6" rx="2.5" ry="2.5" style="stroke:#000000;stroke-width:1;" width="2099.332" x="16" y="269.543"/><rect fill="#FFFFFF" height="33.9688" rx="12.5" ry="12.5" style="stroke:#555555;stroke-width:1;" width="136.9004" x="997.2158" y="307.543"/><text fill="#000000" font-family="Helvetica" font-size="12" lengthAdjust="spacing" textLength="116.9004" x="1007.2158" y="328.6816">Aggregate Findings</text><rect fill="#FFF8E8" height="96.6953" style="stroke:#000000;stroke-width:1;" width="364.3818" x="985.5869" y="351.5117"/><path d="M1083.5928,351.5117 L1083.5928,360.8086 L1073.5928,370.8086 L985.5869,370.8086 " fill="none" style="stroke:#000000;stroke-width:1;"/><text fill="#000000" font-family="Helvetica" font-size="14" lengthAdjust="spacing" textLength="88.0059" x="988.5869" y="365.5068">Quality Gate</text><path d="M1155.7451,380.8086 L1155.7451,404.5078 L1135.7451,408.5078 L1155.7451,412.5078 L1155.7451,436.207 A0,0 0 0 0 1155.7451,436.207 L1339.9688,436.207 A0,0 0 0 0 1339.9688,436.207 L1339.9688,390.8086 L1329.9688,380.8086 L1155.7451,380.8086 A0,0 0 0 0 1155.7451,380.8086 " fill="#FFFFFF" style="stroke:#000000;stroke-width:1;"/><path d="M1329.9688,380.8086 L1329.9688,390.8086 L1339.9688,390.8086 L1329.9688,380.8086 " fill="#FFFFFF" style="stroke:#000000;stroke-width:1;"/><text fill="#000000" font-family="Helvetica" font-size="13" lengthAdjust="spacing" textLength="163.2236" x="1161.7451" y="397.8755">Code smells, duplication,</text><text fill="#000000" font-family="Helvetica" font-size="13" lengthAdjust="spacing" textLength="128.6226" x="1161.7451" y="413.0083">complexity metrics,</text><text fill="#000000" font-family="Helvetica" font-size="13" lengthAdjust="spacing" textLength="112.1758" x="1161.7451" y="428.1411">security hotspots</text><rect fill="#FFFFFF" height="33.9688" rx="12.5" ry="12.5" style="stroke:#555555;stroke-width:1;" width="140.1582" x="995.5869" y="391.5234"/><text fill="#000000" font-family="Helvetica" font-size="12" lengthAdjust="spacing" textLength="120.1582" x="1005.5869" y="412.6621">SonarQube Analysis</text><rect fill="#E8F8E8" height="102.9648" style="stroke:#000000;stroke-width:1;" width="346.5771" x="986.3896" y="458.207"/><path d="M1088.5381,458.207 L1088.5381,467.5039 L1078.5381,477.5039 L986.3896,477.5039 " fill="none" style="stroke:#000000;stroke-width:1;"/><text fill="#000000" font-family="Helvetica" font-size="14" lengthAdjust="spacing" textLength="92.1484" x="989.3896" y="472.2021">Supply Chain</text><path d="M1154.9424,493.7734 L1154.9424,517.4727 L1134.9424,521.4727 L1154.9424,525.4727 L1154.9424,549.1719 A0,0 0 0 0 1154.9424,549.1719 L1322.9668,549.1719 A0,0 0 0 0 1322.9668,549.1719 L1322.9668,503.7734 L1312.9668,493.7734 L1154.9424,493.7734 A0,0 0 0 0 1154.9424,493.7734 " fill="#FFFFFF" style="stroke:#000000;stroke-width:1;"/><path d="M1312.9668,493.7734 L1312.9668,503.7734 L1322.9668,503.7734 L1312.9668,493.7734 " fill="#FFFFFF" style="stroke:#000000;stroke-width:1;"/><text fill="#000000" font-family="Helvetica" font-size="13" lengthAdjust="spacing" textLength="141.8447" x="1160.9424" y="510.8403">Full dependency tree,</text><text fill="#000000" font-family="Helvetica" font-size="13" lengthAdjust="spacing" textLength="147.0244" x="1160.9424" y="525.9731">27 extracted modules,</text><text fill="#000000" font-family="Helvetica" font-size="13" lengthAdjust="spacing" textLength="96.8398" x="1160.9424" y="541.106">transitive deps</text><rect fill="#FFFFFF" height="47.9375" rx="12.5" ry="12.5" style="stroke:#555555;stroke-width:1;" width="138.5527" x="996.3896" y="497.5039"/><text fill="#000000" font-family="Helvetica" font-size="12" lengthAdjust="spacing" textLength="106.4063" x="1006.3896" y="518.6426">SBOM Generation</text><text fill="#000000" font-family="Helvetica" font-size="12" lengthAdjust="spacing" textLength="118.5527" x="1006.3896" y="532.6113">(CycloneDX / SPDX)</text><rect fill="#FFFFFF" height="33.9688" rx="12.5" ry="12.5" style="stroke:#555555;stroke-width:1;" width="173.2695" x="979.0313" y="581.1719"/><text fill="#000000" font-family="Helvetica" font-size="12" lengthAdjust="spacing" textLength="153.2695" x="989.0313" y="602.3105">Generate Security Report</text><polygon fill="#FFFFFF" points="996.168,635.1406,1135.1641,635.1406,1147.1641,647.1406,1135.1641,659.1406,996.168,659.1406,984.168,647.1406,996.168,635.1406" style="stroke:#555555;stroke-width:1;"/><text fill="#000000" font-family="Helvetica" font-size="12" lengthAdjust="spacing" textLength="138.9961" x="996.168" y="651.2949">Critical / High findings?</text><text fill="#000000" font-family="Helvetica" font-size="11" lengthAdjust="spacing" textLength="19.0083" x="965.1597" y="644.5464">yes</text><text fill="#000000" font-family="Helvetica" font-size="11" lengthAdjust="spacing" textLength="13.7017" x="1147.1641" y="644.5464">no</text><rect fill="#F8E8E8" height="33.9688" rx="12.5" ry="12.5" style="stroke:#555555;stroke-width:1;" width="132.5703" x="907.8828" y="669.1406"/><text fill="#000000" font-family="Helvetica" font-size="12" lengthAdjust="spacing" textLength="112.5703" x="917.8828" y="690.2793">FAIL - Block merge</text><rect fill="#FFFFFF" height="47.9375" rx="12.5" ry="12.5" style="stroke:#555555;stroke-width:1;" width="120.1309" x="914.1025" y="723.1094"/><text fill="#000000" font-family="Helvetica" font-size="12" lengthAdjust="spacing" textLength="99.9023" x="924.1025" y="744.248">Notify team with</text><text fill="#000000" font-family="Helvetica" font-size="12" lengthAdjust="spacing" textLength="100.1309" x="924.1025" y="758.2168">detailed findings</text><ellipse cx="974.168" cy="802.0469" fill="none" rx="11" ry="11" style="stroke:#000000;stroke-width:1;"/><ellipse cx="974.168" cy="802.0469" fill="#FFFFFF" rx="6" ry="6" style="stroke:#000000;stroke-width:1;"/><rect fill="#E8F8E8" height="33.9688" rx="12.5" ry="12.5" style="stroke:#555555;stroke-width:1;" width="150.3008" x="1082.0137" y="669.1406"/><text fill="#000000" font-family="Helvetica" font-size="12" lengthAdjust="spacing" textLength="130.3008" x="1092.0137" y="690.2793">PASS - Merge allowed</text><rect fill="#FFFFFF" height="47.9375" rx="12.5" ry="12.5" style="stroke:#555555;stroke-width:1;" width="135.3125" x="1089.5078" y="723.1094"/><text fill="#000000" font-family="Helvetica" font-size="12" lengthAdjust="spacing" textLength="85.8926" x="1099.5078" y="744.248">Archive report</text><text fill="#000000" font-family="Helvetica" font-size="12" lengthAdjust="spacing" textLength="115.3125" x="1099.5078" y="758.2168">and SBOM artifacts</text><ellipse cx="1157.1641" cy="802.0469" fill="none" rx="11" ry="11" style="stroke:#000000;stroke-width:1;"/><ellipse cx="1157.1641" cy="802.0469" fill="#FFFFFF" rx="6" ry="6" style="stroke:#000000;stroke-width:1;"/><line style="stroke:#333333;stroke-width:1;" x1="1065.666" x2="1065.666" y1="71.6094" y2="91.6094"/><polygon fill="#333333" points="1061.666,81.6094,1065.666,91.6094,1069.666,81.6094,1065.666,85.6094" style="stroke:#333333;stroke-width:1;"/><line style="stroke:#333333;stroke-width:1;" x1="94.4199" x2="94.4199" y1="177.875" y2="197.875"/><polygon fill="#333333" points="90.4199,187.875,94.4199,197.875,98.4199,187.875,94.4199,191.875" style="stroke:#333333;stroke-width:1;"/><line style="stroke:#333333;stroke-width:1;" x1="458.2095" x2="458.2095" y1="177.875" y2="197.875"/><polygon fill="#333333" points="454.2095,187.875,458.2095,197.875,462.2095,187.875,458.2095,191.875" style="stroke:#333333;stroke-width:1;"/><line style="stroke:#333333;stroke-width:1;" x1="827.0073" x2="827.0073" y1="177.875" y2="197.875"/><polygon fill="#333333" points="823.0073,187.875,827.0073,197.875,831.0073,187.875,827.0073,191.875" style="stroke:#333333;stroke-width:1;"/><line style="stroke:#333333;stroke-width:1;" x1="1192.6597" x2="1192.6597" y1="177.875" y2="197.875"/><polygon fill="#333333" points="1188.6597,187.875,1192.6597,197.875,1196.6597,187.875,1192.6597,191.875" style="stroke:#333333;stroke-width:1;"/><line style="stroke:#333333;stroke-width:1;" x1="1492.1836" x2="1492.1836" y1="177.875" y2="197.875"/><polygon fill="#333333" points="1488.1836,187.875,1492.1836,197.875,1496.1836,187.875,1492.1836,191.875" style="stroke:#333333;stroke-width:1;"/><line style="stroke:#333333;stroke-width:1;" x1="1828.9502" x2="1828.9502" y1="177.875" y2="197.875"/><polygon fill="#333333" points="1824.9502,187.875,1828.9502,197.875,1832.9502,187.875,1828.9502,191.875" style="stroke:#333333;stroke-width:1;"/><line style="stroke:#333333;stroke-width:1;" x1="94.4199" x2="94.4199" y1="245.8125" y2="269.543"/><polygon fill="#333333" points="90.4199,259.543,94.4199,269.543,98.4199,259.543,94.4199,263.543" style="stroke:#333333;stroke-width:1;"/><line style="stroke:#333333;stroke-width:1;" x1="458.2095" x2="458.2095" y1="245.8125" y2="269.543"/><polygon fill="#333333" points="454.2095,259.543,458.2095,269.543,462.2095,259.543,458.2095,263.543" style="stroke:#333333;stroke-width:1;"/><line style="stroke:#333333;stroke-width:1;" x1="827.0073" x2="827.0073" y1="245.8125" y2="269.543"/><polygon fill="#333333" points="823.0073,259.543,827.0073,269.543,831.0073,259.543,827.0073,263.543" style="stroke:#333333;stroke-width:1;"/><line style="stroke:#333333;stroke-width:1;" x1="1192.6597" x2="1192.6597" y1="245.8125" y2="269.543"/><polygon fill="#333333" points="1188.6597,259.543,1192.6597,269.543,1196.6597,259.543,1192.6597,263.543" style="stroke:#333333;stroke-width:1;"/><line style="stroke:#333333;stroke-width:1;" x1="1492.1836" x2="1492.1836" y1="245.8125" y2="269.543"/><polygon fill="#333333" points="1488.1836,259.543,1492.1836,269.543,1496.1836,259.543,1492.1836,263.543" style="stroke:#333333;stroke-width:1;"/><line style="stroke:#333333;stroke-width:1;" x1="1828.9502" x2="1828.9502" y1="245.8125" y2="269.543"/><polygon fill="#333333" points="1824.9502,259.543,1828.9502,269.543,1832.9502,259.543,1828.9502,263.543" style="stroke:#333333;stroke-width:1;"/><line style="stroke:#333333;stroke-width:1;" x1="1065.666" x2="1065.666" y1="125.5781" y2="171.875"/><polygon fill="#333333" points="1061.666,161.875,1065.666,171.875,1069.666,161.875,1065.666,165.875" style="stroke:#333333;stroke-width:1;"/><line style="stroke:#333333;stroke-width:1;" x1="1065.666" x2="1065.666" y1="275.543" y2="307.543"/><polygon fill="#333333" points="1061.666,297.543,1065.666,307.543,1069.666,297.543,1065.666,301.543" style="stroke:#333333;stroke-width:1;"/><line style="stroke:#333333;stroke-width:1;" x1="1065.666" x2="1065.666" y1="341.5117" y2="391.5234"/><polygon fill="#333333" points="1061.666,381.5234,1065.666,391.5234,1069.666,381.5234,1065.666,385.5234" style="stroke:#333333;stroke-width:1;"/><line style="stroke:#333333;stroke-width:1;" x1="1065.666" x2="1065.666" y1="425.4922" y2="497.5039"/><polygon fill="#333333" points="1061.666,487.5039,1065.666,497.5039,1069.666,487.5039,1065.666,491.5039" style="stroke:#333333;stroke-width:1;"/><line style="stroke:#333333;stroke-width:1;" x1="1065.666" x2="1065.666" y1="545.4414" y2="581.1719"/><polygon fill="#333333" points="1061.666,571.1719,1065.666,581.1719,1069.666,571.1719,1065.666,575.1719" style="stroke:#333333;stroke-width:1;"/><line style="stroke:#333333;stroke-width:1;" x1="974.168" x2="974.168" y1="703.1094" y2="723.1094"/><polygon fill="#333333" points="970.168,713.1094,974.168,723.1094,978.168,713.1094,974.168,717.1094" style="stroke:#333333;stroke-width:1;"/><line style="stroke:#333333;stroke-width:1;" x1="974.168" x2="974.168" y1="771.0469" y2="791.0469"/><polygon fill="#333333" points="970.168,781.0469,974.168,791.0469,978.168,781.0469,974.168,785.0469" style="stroke:#333333;stroke-width:1;"/><line style="stroke:#333333;stroke-width:1;" x1="1157.1641" x2="1157.1641" y1="703.1094" y2="723.1094"/><polygon fill="#333333" points="1153.1641,713.1094,1157.1641,723.1094,1161.1641,713.1094,1157.1641,717.1094" style="stroke:#333333;stroke-width:1;"/><line style="stroke:#333333;stroke-width:1;" x1="1157.1641" x2="1157.1641" y1="771.0469" y2="791.0469"/><polygon fill="#333333" points="1153.1641,781.0469,1157.1641,791.0469,1161.1641,781.0469,1157.1641,785.0469" style="stroke:#333333;stroke-width:1;"/><line style="stroke:#333333;stroke-width:1;" x1="984.168" x2="974.168" y1="647.1406" y2="647.1406"/><line style="stroke:#333333;stroke-width:1;" x1="974.168" x2="974.168" y1="647.1406" y2="669.1406"/><polygon fill="#333333" points="970.168,659.1406,974.168,669.1406,978.168,659.1406,974.168,663.1406" style="stroke:#333333;stroke-width:1;"/><line style="stroke:#333333;stroke-width:1;" x1="1147.1641" x2="1157.1641" y1="647.1406" y2="647.1406"/><line style="stroke:#333333;stroke-width:1;" x1="1157.1641" x2="1157.1641" y1="647.1406" y2="669.1406"/><polygon fill="#333333" points="1153.1641,659.1406,1157.1641,669.1406,1161.1641,659.1406,1157.1641,663.1406" style="stroke:#333333;stroke-width:1;"/><line style="stroke:#333333;stroke-width:1;" x1="1065.666" x2="1065.666" y1="615.1406" y2="635.1406"/><polygon fill="#333333" points="1061.666,625.1406,1065.666,635.1406,1069.666,625.1406,1065.666,629.1406" style="stroke:#333333;stroke-width:1;"/><!--SRC=[bPLDSzis48Rl_1LR-oBFrCaqRQOQvT2HASlnv4iEEsqEli3WaaG50Xm0bCrsyj_pWc8Oqn_Z6XVBsjNYsQyNFuMAQwP62sKIlrMc4KxK96HGEnMwjJKXK_yo_VBgbZNdGhGwHED7WL-_PRtZeAHu8CA9aDlIsTRagTNMqU6wFmzvMfUp6xnUz-UsbtFsUZ3-sfya2Ihe_dPriopP13gcZ6Nh48moAOnHfgIDQk1WE4by42uaoIArELDgwre5UacRp_IdKsN9xasIu2u4LTRGGHO4KgAb4RhpojCiScZD-kY03a_dwz_MA_el8Pp2kct_8Pv5QJtBIpCxi-I_m-3-mExepUXbR632hLKOlufdnO5by9HTl2Tb_i5deFmySQc4ooKIo4awpf6q4jfFNLhZHS6mTqsmr7fHycXda_UNZ-0aojZw4JyptHRqAsxWoaPsj6krOIUkb4Pbs3-THIozfzA-g6t-4dzyMqy1PSLowsbhxBMXzA_JE_nQIJOU2TYwqKeO-Gnyj7BNWJ_5RCB0Zlmm24zpdzUerDrqfsYVCcemqD7lFdUjlBIcK6NhH6oSVqRLkIuTDm3VY81HCSTNmgF7OfY-f-7JrWTR4wREjVeUzj_BR0FoFlGTMonJ62_w_yZlpjCClESYVKQ9LrPksHKAQxiVWYbBtfkFO-EnHI-wMa_jx-QUQc5KmJuy0_KCcy1WpKu-VPZqjqEq8AkdkK-K4QuRg_JeKCHAt1bcOSeMfcFVi5G554MhgqVOup-zc7o5IYrBJ4GfWBDM9aTr_LIVBbhHPt06buDULkUdyq6H5fa5xqLxnQD-xLDy8BrU3NtD6Z92UOkDas8gE_qUyarVBWvEoLlvZn9NsU0REtHbpEhhL5BRfj4TfHMwinVHsyYnEMSSUnEzumvtKbl3gozGwMop-dBqQ0xhLckyIgDa1SVyW_7LxyGtmU6TmKP1awRx0OFn0DnnZ72VVp4myO-tvJCtrWMqGnKqI_4LIgO1-HPGL0pT-kE8yBOQcdNGp3xgOKptTBvOBy_VuwawqPXsLDILl4ziyT46LO2UyTvTgr1T8XsifmPsCSv0N_LWcuGrD79cx11yNyt5Pfbb2FuXXYMyL_QQyo7yqiagfkbw_4iZa6LVzTYX0kMPHCTzHV8D]--></g></svg>